<svg xmlns="http://www.w3.org/2000/svg" viewBox="0 0 120 43.11"><defs><style>.cls-1{fill:#fff;}</style></defs><title>Asset 1</title><g id="Layer_2" data-name="Layer 2"><g id="Layer_1-2" data-name="Layer 1"><path class="cls-1" d="M37.76,6.44h-4v17.2q0,4.63,2.47,6.58c1.64,1.3,4.24,2,7.67,2V28.44a18.15,18.15,0,0,1-2.19-.14,7.49,7.49,0,0,1-1.85-.54,2.83,2.83,0,0,1-1.51-1.44,5.93,5.93,0,0,1-.55-2.61V14.46h6.1V10.69h-6.1Z"/><path class="cls-1" d="M91.83,6.44h-4v17.2q0,4.63,2.47,6.58c1.64,1.3,4.25,2,7.67,2V28.44a18.3,18.3,0,0,1-2.19-.14,7.49,7.49,0,0,1-1.85-.54,2.83,2.83,0,0,1-1.51-1.44,5.93,5.93,0,0,1-.55-2.61V14.46h6.1V10.69h-6.1Z"/><path class="cls-1" d="M112.19,29.06a6.87,6.87,0,0,1-5.28-2.13,7.53,7.53,0,0,1-1.64-2.87h4.59c6.78,0,10.14-2.61,10.14-7.75,0-4.11-2.6-6.3-7.88-6.51a10.42,10.42,0,0,0-8.5,3.22,12.61,12.61,0,0,0-3.08,8.84,10.62,10.62,0,0,0,3.15,8A11.57,11.57,0,0,0,112.12,33a11.74,11.74,0,0,0,7.54-2.6l-2.81-2.74A7.15,7.15,0,0,1,112.19,29.06Zm-5.49-13.3a6.57,6.57,0,0,1,5.21-2.33,4.76,4.76,0,0,1,2.74.69,2.56,2.56,0,0,1,1.1,2.19,3.65,3.65,0,0,1-1.23,3.15,7.39,7.39,0,0,1-4.32,1h-5.28A8.53,8.53,0,0,1,106.7,15.76Z"/><path class="cls-1" d="M80.59,28.65H75.73c-2.06,0-3.5-.55-4.25-1.51s-1.17-2.74-1.17-5.28V10.21h-4V21.72c0,4.39.75,7.27,2.19,8.71s4.25,2.12,8.3,2.12h3.9c-.27,4.46-3.22,6.65-8.91,6.65H68.81v3.91h3.35c4.32,0,7.47-1,9.53-3s3-4.93,3-8.77V10.21H80.59Z"/><path class="cls-1" d="M62.57,22.62a4.28,4.28,0,0,0-1.92-1.51c-.82-.34-2.12-.82-3.84-1.37l-2.94-1a8.61,8.61,0,0,1-1-.41,2.13,2.13,0,0,1-1-.55,3,3,0,0,1-.55-.76,2.66,2.66,0,0,1-.21-1,1.63,1.63,0,0,1,1-1.44,5,5,0,0,1,2.33-.48h8.23V10.28H54.55a8.88,8.88,0,0,0-5.28,1.51,4.89,4.89,0,0,0-2.19,4.32,5.82,5.82,0,0,0,1.3,3.7A7.18,7.18,0,0,0,51.47,22c1.16.41,2.4.82,3.63,1.16a16.6,16.6,0,0,1,3.08,1.24,2.08,2.08,0,0,1,1.31,1.85c0,1.57-1.51,2.33-4.39,2.33h-8v3.9h8c5.69,0,8.57-2.12,8.57-6.23a8.13,8.13,0,0,0-.21-1.78A4.57,4.57,0,0,0,62.57,22.62Z"/><path class="cls-1" d="M27.41,1.37a2.32,2.32,0,0,0-1.85.75A2.78,2.78,0,0,0,25,3.84a2.78,2.78,0,0,0,.61,1.71,2,2,0,0,0,1.85.76,2.31,2.31,0,0,0,1.85-.76,2.79,2.79,0,0,0,.62-1.71,2.65,2.65,0,0,0-.62-1.72A2.3,2.3,0,0,0,27.41,1.37Z"/><rect class="cls-1" x="25.7" y="10.21" width="4.11" height="22.27"/><path class="cls-1" d="M11.38,9.8a11.9,11.9,0,0,0-7.2,2.26V0H0V21.31a11.84,11.84,0,0,0,3,8.43A10.3,10.3,0,0,0,10.9,32.9a12.37,12.37,0,0,0,8.49-3c2.27-2.06,3.36-4.87,3.36-8.57A11.36,11.36,0,0,0,19.53,13,11,11,0,0,0,11.38,9.8Zm5.27,17.27a7.3,7.3,0,0,1-5.41,2,6.77,6.77,0,0,1-5.14-2,8.14,8.14,0,0,1-1.85-5.69V16.65c1.44-1.09,3-2.94,6.71-2.94a7.73,7.73,0,0,1,5.56,2,7.33,7.33,0,0,1,2.12,5.62C18.57,23.85,18,25.77,16.65,27.07Z"/></g></g></svg>