<svg xmlns="http://www.w3.org/2000/svg" viewBox="0 0 3323.09 645.1"><defs><style>.cls-1{fill:#9b9b9b;}</style></defs><title>Asset 3</title><g id="Layer_2" data-name="Layer 2"><g id="Layer_1-2" data-name="Layer 1"><rect class="cls-1" x="4.2" y="472.28" width="1.01" height="50.54"/><rect class="cls-1" x="17.44" y="510.57" width="1.01" height="16.87"/><rect class="cls-1" x="30.69" y="502.48" width="1.01" height="35.3"/><rect class="cls-1" x="43.94" y="517.11" width="1.01" height="44.1"/><rect class="cls-1" x="57.19" y="531.75" width="1.01" height="19.53"/><rect class="cls-1" x="70.43" y="495.34" width="1.01" height="60.63"/><rect class="cls-1" x="83.68" y="495.34" width="1.01" height="67.88"/><rect class="cls-1" x="96.93" y="508.45" width="1.01" height="18.99"/><rect class="cls-1" x="110.18" y="472.28" width="1.01" height="55.16"/><rect class="cls-1" x="123.42" y="464.58" width="1.01" height="43.87"/><rect class="cls-1" x="136.67" y="467.6" width="1.01" height="18.91"/><rect class="cls-1" x="149.92" y="472.28" width="1.01" height="38.29"/><rect class="cls-1" x="163.16" y="481.68" width="1.01" height="61.81"/><rect class="cls-1" x="176.41" y="515.78" width="1.01" height="22"/><rect class="cls-1" x="189.66" y="523.77" width="1.01" height="40.46"/><rect class="cls-1" x="202.91" y="550.56" width="1.01" height="32.19"/><rect class="cls-1" x="216.48" y="544.76" width="1.01" height="58.58"/><rect class="cls-1" x="230.06" y="578.04" width="1.01" height="31.85"/><rect class="cls-1" x="243.64" y="582.75" width="1.01" height="53.87"/><rect class="cls-1" x="257.22" y="604.93" width="1.01" height="18.44"/><rect class="cls-1" x="270.8" y="607.41" width="1.01" height="37.69"/><rect class="cls-1" x="284.37" y="593.96" width="1.01" height="35"/><rect class="cls-1" x="297.95" y="601.23" width="1.01" height="12.92"/><rect class="cls-1" x="311.53" y="566.65" width="1.01" height="44.81"/><rect class="cls-1" x="325.11" y="569.27" width="1.01" height="30.75"/><rect class="cls-1" x="338.68" y="544.76" width="1.01" height="56.48"/><rect class="cls-1" x="352.26" y="534.67" width="1.01" height="30.85"/><rect class="cls-1" x="365.84" y="541.52" width="1.01" height="19.69"/><rect class="cls-1" x="379.42" y="544.24" width="1.01" height="33.8"/><rect class="cls-1" x="393" y="550.56" width="1.01" height="27.48"/><rect class="cls-1" x="406.57" y="553.76" width="1.01" height="51.17"/><rect class="cls-1" x="420.15" y="541.52" width="1.01" height="45.93"/><rect class="cls-1" x="433.73" y="513.31" width="1.01" height="54.48"/><rect class="cls-1" x="447.31" y="506.07" width="1.01" height="31.63"/><rect class="cls-1" x="460.89" y="506.07" width="1.01" height="42.73"/><rect class="cls-1" x="474.46" y="493.32" width="1.01" height="28.56"/><rect class="cls-1" x="488.04" y="460.93" width="1.01" height="66.18"/><rect class="cls-1" x="501.62" y="454.69" width="1.01" height="43.67"/><rect class="cls-1" x="515.2" y="428.27" width="1.01" height="62.57"/><rect class="cls-1" x="528.78" y="428.27" width="1.01" height="31.28"/><rect class="cls-1" x="542.35" y="425.24" width="1.01" height="15.97"/><rect class="cls-1" x="555.93" y="409.28" width="1.01" height="47.9"/><rect class="cls-1" x="569.51" y="417.26" width="1.01" height="30.85"/><rect class="cls-1" x="583.09" y="400.54" width="1.01" height="37.82"/><rect class="cls-1" x="596.66" y="414.78" width="1.01" height="65.87"/><rect class="cls-1" x="610.24" y="441.21" width="1.01" height="29.91"/><rect class="cls-1" x="623.82" y="425.24" width="1.01" height="35.69"/><rect class="cls-1" x="637.4" y="441.21" width="1.01" height="35.32"/><rect class="cls-1" x="650.98" y="451.47" width="1.01" height="64.32"/><rect class="cls-1" x="664.55" y="441.21" width="1.01" height="23.95"/><rect class="cls-1" x="678.13" y="400.54" width="1.01" height="64.61"/><rect class="cls-1" x="691.71" y="405.08" width="1.01" height="30.63"/><rect class="cls-1" x="705.29" y="360.7" width="1.01" height="67.57"/><rect class="cls-1" x="718.86" y="366.75" width="1.01" height="29.02"/><rect class="cls-1" x="732.44" y="374.82" width="1.01" height="63.54"/><rect class="cls-1" x="746.02" y="409.28" width="1.01" height="15.97"/><rect class="cls-1" x="759.6" y="394.49" width="1.01" height="33.79"/><rect class="cls-1" x="773.18" y="348.1" width="1.01" height="67.88"/><rect class="cls-1" x="786.75" y="351.63" width="1.01" height="46.39"/><rect class="cls-1" x="800.33" y="357.88" width="1.01" height="29.91"/><rect class="cls-1" x="813.91" y="372.83" width="1.01" height="15.96"/><rect class="cls-1" x="827.49" y="360.7" width="1.01" height="40.59"/><rect class="cls-1" y="487.53" width="9.4" height="29.91"/><rect class="cls-1" x="39.74" y="522.82" width="9.4" height="29.91"/><rect class="cls-1" x="105.98" y="487.53" width="9.4" height="29.91"/><rect class="cls-1" x="239.44" y="588.38" width="9.4" height="29.91"/><rect class="cls-1" x="307.33" y="575.77" width="9.4" height="29.91"/><rect class="cls-1" x="320.91" y="575.77" width="9.4" height="14.96"/><rect class="cls-1" x="497.42" y="471.12" width="9.4" height="19.72"/><rect class="cls-1" x="782.56" y="357.88" width="9.4" height="29.91"/><rect class="cls-1" x="402.38" y="567.79" width="9.4" height="29.91"/><rect class="cls-1" x="415.96" y="550.56" width="9.4" height="29.91"/><rect class="cls-1" x="334.49" y="551.28" width="9.4" height="39.45"/><rect class="cls-1" x="511" y="441.21" width="9.4" height="39.45"/><rect class="cls-1" x="646.78" y="456.16" width="9.4" height="39.45"/><rect class="cls-1" x="483.85" y="471.12" width="9.4" height="39.45"/><rect class="cls-1" x="592.47" y="421.48" width="9.4" height="39.45"/><rect class="cls-1" x="768.98" y="369.07" width="9.4" height="39.45"/><rect class="cls-1" x="728.25" y="380.82" width="9.4" height="39.45"/><rect class="cls-1" x="701.09" y="380.82" width="9.4" height="39.45"/><rect class="cls-1" x="673.93" y="415.98" width="9.4" height="39.45"/><rect class="cls-1" x="429.53" y="523.77" width="9.4" height="39.45"/><rect class="cls-1" x="212.29" y="550.09" width="9.4" height="37.35"/><rect class="cls-1" x="185.46" y="528.53" width="9.4" height="29.91"/><rect class="cls-1" x="119.23" y="479.2" width="9.4" height="23.28"/><rect class="cls-1" x="266.6" y="613.33" width="9.4" height="23.28"/><rect class="cls-1" x="145.72" y="475.89" width="9.4" height="23.28"/><rect class="cls-1" x="66.24" y="508.45" width="9.4" height="42.83"/><rect class="cls-1" x="79.48" y="501.41" width="9.4" height="42.83"/><rect class="cls-1" x="158.97" y="487.03" width="9.4" height="42.83"/><rect class="cls-1" x="26.49" y="510.8" width="9.4" height="19.12"/><rect class="cls-1" x="13.25" y="514.96" width="9.4" height="4.96"/><rect class="cls-1" x="92.73" y="512.48" width="9.4" height="4.96"/><rect class="cls-1" x="198.71" y="555.97" width="9.4" height="16.52"/><rect class="cls-1" x="172.22" y="527.44" width="9.4" height="4.96"/><rect class="cls-1" x="253.02" y="612.92" width="9.4" height="4.96"/><rect class="cls-1" x="293.76" y="604.93" width="9.4" height="4.96"/><rect class="cls-1" x="361.64" y="548.8" width="9.4" height="4.96"/><rect class="cls-1" x="456.69" y="513.31" width="9.4" height="24.48"/><rect class="cls-1" x="538.16" y="430.75" width="9.4" height="4.96"/><rect class="cls-1" x="660.36" y="454.69" width="9.4" height="4.96"/><rect class="cls-1" x="741.82" y="414.78" width="9.4" height="4.96"/><rect class="cls-1" x="809.71" y="378.34" width="9.4" height="4.96"/><rect class="cls-1" x="132.47" y="472.28" width="9.4" height="9.4"/><rect class="cls-1" x="225.87" y="582.75" width="9.4" height="15.97"/><rect class="cls-1" x="280.18" y="607.41" width="9.4" height="15.97"/><rect class="cls-1" x="348.07" y="544.76" width="9.4" height="15.97"/><rect class="cls-1" x="375.22" y="549.55" width="9.4" height="15.97"/><rect class="cls-1" x="551.73" y="433.22" width="9.4" height="15.97"/><rect class="cls-1" x="619.62" y="441.21" width="9.4" height="15.97"/><rect class="cls-1" x="388.8" y="556.25" width="9.4" height="15.97"/><rect class="cls-1" x="443.11" y="515.78" width="9.4" height="15.97"/><rect class="cls-1" x="470.27" y="500.47" width="9.4" height="15.97"/><rect class="cls-1" x="578.89" y="417.26" width="9.4" height="15.97"/><rect class="cls-1" x="687.51" y="415.84" width="9.4" height="9.4"/><rect class="cls-1" x="565.31" y="425.24" width="9.4" height="15.97"/><rect class="cls-1" x="714.67" y="372.83" width="9.4" height="15.97"/><rect class="cls-1" x="524.58" y="433.22" width="9.4" height="15.97"/><rect class="cls-1" x="633.2" y="449.19" width="9.4" height="15.97"/><rect class="cls-1" x="755.4" y="401.29" width="9.4" height="15.97"/><rect class="cls-1" x="606.05" y="448.11" width="9.4" height="15.97"/><rect class="cls-1" x="796.14" y="364.85" width="9.4" height="15.97"/><rect class="cls-1" x="823.29" y="379.81" width="9.4" height="15.97"/><rect class="cls-1" x="52.99" y="538.79" width="9.4" height="9.4"/><rect class="cls-1" x="1671.11" y="249" width="1" height="50.12"/><rect class="cls-1" x="1684.25" y="286.97" width="1" height="16.73"/><rect class="cls-1" x="1697.38" y="278.95" width="1" height="35"/><rect class="cls-1" x="1710.52" y="293.45" width="1" height="43.72"/><rect class="cls-1" x="1723.65" y="307.97" width="1" height="19.37"/><rect class="cls-1" x="1736.79" y="271.87" width="1" height="60.12"/><rect class="cls-1" x="1749.92" y="271.87" width="1" height="67.3"/><rect class="cls-1" x="1763.06" y="284.87" width="1" height="18.83"/><rect class="cls-1" x="1776.19" y="249" width="1" height="54.69"/><rect class="cls-1" x="1789.33" y="241.37" width="1" height="43.5"/><rect class="cls-1" x="1802.47" y="244.37" width="1" height="18.75"/><rect class="cls-1" x="1815.6" y="249" width="1" height="37.96"/><rect class="cls-1" x="1828.74" y="258.33" width="1" height="61.29"/><rect class="cls-1" x="1841.87" y="292.14" width="1" height="21.81"/><rect class="cls-1" x="1855.01" y="300.06" width="1" height="40.12"/><rect class="cls-1" x="1868.14" y="326.62" width="1" height="31.92"/><rect class="cls-1" x="1881.61" y="320.87" width="1" height="58.08"/><rect class="cls-1" x="1895.07" y="353.87" width="1" height="31.58"/><rect class="cls-1" x="1908.53" y="358.54" width="1" height="53.41"/><rect class="cls-1" x="1922" y="380.54" width="1" height="18.29"/><rect class="cls-1" x="1935.46" y="383" width="1" height="37.37"/><rect class="cls-1" x="1948.92" y="369.66" width="1" height="34.71"/><rect class="cls-1" x="1962.39" y="376.87" width="1" height="12.81"/><rect class="cls-1" x="1975.85" y="342.58" width="1" height="44.43"/><rect class="cls-1" x="1989.31" y="345.17" width="1" height="30.49"/><rect class="cls-1" x="2002.78" y="320.87" width="1" height="56"/><rect class="cls-1" x="2016.24" y="310.87" width="1" height="30.58"/><rect class="cls-1" x="2029.7" y="317.66" width="1" height="19.52"/><rect class="cls-1" x="2043.17" y="320.36" width="1" height="33.51"/><rect class="cls-1" x="2056.63" y="326.62" width="1" height="27.25"/><rect class="cls-1" x="2070.09" y="329.8" width="1" height="50.74"/><rect class="cls-1" x="2083.56" y="317.66" width="1" height="45.54"/><rect class="cls-1" x="2097.02" y="289.68" width="1" height="54.02"/><rect class="cls-1" x="2110.48" y="282.51" width="1" height="31.36"/><rect class="cls-1" x="2123.95" y="282.51" width="1" height="42.37"/><rect class="cls-1" x="2137.41" y="269.87" width="1" height="28.32"/><rect class="cls-1" x="2150.87" y="237.75" width="1" height="65.62"/><rect class="cls-1" x="2164.34" y="231.57" width="1" height="43.3"/><rect class="cls-1" x="2177.8" y="205.37" width="1" height="62.04"/><rect class="cls-1" x="2191.26" y="205.37" width="1" height="31.02"/><rect class="cls-1" x="2204.73" y="202.36" width="1" height="15.83"/><rect class="cls-1" x="2218.19" y="186.53" width="1" height="47.49"/><rect class="cls-1" x="2231.65" y="194.45" width="1" height="30.59"/><rect class="cls-1" x="2245.12" y="177.87" width="1" height="37.5"/><rect class="cls-1" x="2258.58" y="191.99" width="1" height="65.32"/><rect class="cls-1" x="2272.04" y="218.19" width="1" height="29.66"/><rect class="cls-1" x="2285.51" y="202.36" width="1" height="35.39"/><rect class="cls-1" x="2298.97" y="218.19" width="1" height="35.02"/><rect class="cls-1" x="2312.43" y="228.37" width="1" height="63.77"/><rect class="cls-1" x="2325.9" y="218.19" width="1" height="23.75"/><rect class="cls-1" x="2339.36" y="177.87" width="1" height="64.07"/><rect class="cls-1" x="2352.82" y="182.37" width="1" height="30.37"/><rect class="cls-1" x="2366.29" y="138.37" width="1" height="67"/><rect class="cls-1" x="2379.75" y="144.37" width="1" height="28.77"/><rect class="cls-1" x="2393.21" y="152.37" width="1" height="63"/><rect class="cls-1" x="2406.67" y="186.53" width="1" height="15.83"/><rect class="cls-1" x="2420.14" y="171.87" width="1" height="33.5"/><rect class="cls-1" x="2433.6" y="125.87" width="1" height="67.31"/><rect class="cls-1" x="2447.06" y="129.37" width="1" height="46"/><rect class="cls-1" x="2460.53" y="135.57" width="1" height="29.66"/><rect class="cls-1" x="2473.99" y="150.4" width="1" height="15.83"/><rect class="cls-1" x="2487.45" y="138.37" width="1" height="40.25"/><rect class="cls-1" x="1666.95" y="264.12" width="9.32" height="29.66"/><rect class="cls-1" x="1706.36" y="299.12" width="9.32" height="29.66"/><rect class="cls-1" x="1772.03" y="264.12" width="9.32" height="29.66"/><rect class="cls-1" x="1904.37" y="364.12" width="9.32" height="29.66"/><rect class="cls-1" x="1971.69" y="351.62" width="9.32" height="29.66"/><rect class="cls-1" x="1985.15" y="351.62" width="9.32" height="14.83"/><rect class="cls-1" x="2160.17" y="247.85" width="9.32" height="19.56"/><rect class="cls-1" x="2442.9" y="135.57" width="9.32" height="29.66"/><rect class="cls-1" x="2065.93" y="343.71" width="9.32" height="29.66"/><rect class="cls-1" x="2079.4" y="326.62" width="9.32" height="29.66"/><rect class="cls-1" x="1998.62" y="327.34" width="9.32" height="39.11"/><rect class="cls-1" x="2173.64" y="218.19" width="9.32" height="39.11"/><rect class="cls-1" x="2308.27" y="233.02" width="9.32" height="39.11"/><rect class="cls-1" x="2146.71" y="247.85" width="9.32" height="39.11"/><rect class="cls-1" x="2254.42" y="198.64" width="9.32" height="39.11"/><rect class="cls-1" x="2429.44" y="146.67" width="9.32" height="39.11"/><rect class="cls-1" x="2389.05" y="158.31" width="9.32" height="39.11"/><rect class="cls-1" x="2362.12" y="158.31" width="9.32" height="39.11"/><rect class="cls-1" x="2335.2" y="193.18" width="9.32" height="39.11"/><rect class="cls-1" x="2092.86" y="300.06" width="9.32" height="39.11"/><rect class="cls-1" x="1877.45" y="326.16" width="9.32" height="37.04"/><rect class="cls-1" x="1850.85" y="304.78" width="9.32" height="29.66"/><rect class="cls-1" x="1785.17" y="255.87" width="9.32" height="23.08"/><rect class="cls-1" x="1931.3" y="388.87" width="9.32" height="23.08"/><rect class="cls-1" x="1811.44" y="252.58" width="9.32" height="23.08"/><rect class="cls-1" x="1732.63" y="284.87" width="9.32" height="42.47"/><rect class="cls-1" x="1745.76" y="277.89" width="9.32" height="42.47"/><rect class="cls-1" x="1824.58" y="263.63" width="9.32" height="42.47"/><rect class="cls-1" x="1693.22" y="287.2" width="9.32" height="18.95"/><rect class="cls-1" x="1680.08" y="291.33" width="9.32" height="4.92"/><rect class="cls-1" x="1758.9" y="288.87" width="9.32" height="4.92"/><rect class="cls-1" x="1863.98" y="331.99" width="9.32" height="16.38"/><rect class="cls-1" x="1837.71" y="303.7" width="9.32" height="4.92"/><rect class="cls-1" x="1917.84" y="388.45" width="9.32" height="4.92"/><rect class="cls-1" x="1958.23" y="380.54" width="9.32" height="4.92"/><rect class="cls-1" x="2025.54" y="324.88" width="9.32" height="4.92"/><rect class="cls-1" x="2119.79" y="289.68" width="9.32" height="24.27"/><rect class="cls-1" x="2200.56" y="207.82" width="9.32" height="4.92"/><rect class="cls-1" x="2321.73" y="231.57" width="9.32" height="4.92"/><rect class="cls-1" x="2402.51" y="191.99" width="9.32" height="4.92"/><rect class="cls-1" x="2469.83" y="155.85" width="9.32" height="4.92"/><rect class="cls-1" x="1798.3" y="249" width="9.32" height="9.32"/><rect class="cls-1" x="1890.91" y="358.54" width="9.32" height="15.83"/><rect class="cls-1" x="1944.76" y="383" width="9.32" height="15.83"/><rect class="cls-1" x="2012.08" y="320.87" width="9.32" height="15.83"/><rect class="cls-1" x="2039.01" y="325.62" width="9.32" height="15.83"/><rect class="cls-1" x="2214.03" y="210.28" width="9.32" height="15.83"/><rect class="cls-1" x="2281.34" y="218.19" width="9.32" height="15.83"/><rect class="cls-1" x="2052.47" y="332.26" width="9.32" height="15.83"/><rect class="cls-1" x="2106.32" y="292.14" width="9.32" height="15.83"/><rect class="cls-1" x="2133.25" y="276.95" width="9.32" height="15.83"/><rect class="cls-1" x="2240.95" y="194.45" width="9.32" height="15.83"/><rect class="cls-1" x="2348.66" y="193.04" width="9.32" height="9.32"/><rect class="cls-1" x="2227.49" y="202.36" width="9.32" height="15.83"/><rect class="cls-1" x="2375.59" y="150.4" width="9.32" height="15.83"/><rect class="cls-1" x="2187.1" y="210.28" width="9.32" height="15.83"/><rect class="cls-1" x="2294.81" y="226.11" width="9.32" height="15.83"/><rect class="cls-1" x="2415.98" y="178.62" width="9.32" height="15.83"/><rect class="cls-1" x="2267.88" y="225.04" width="9.32" height="15.83"/><rect class="cls-1" x="2456.37" y="142.48" width="9.32" height="15.83"/><rect class="cls-1" x="2483.29" y="157.31" width="9.32" height="15.83"/><rect class="cls-1" x="1719.49" y="314.95" width="9.32" height="9.32"/><rect class="cls-1" x="2501.59" y="123.14" width="1" height="50.12"/><rect class="cls-1" x="2514.72" y="161.1" width="1" height="16.73"/><rect class="cls-1" x="2527.86" y="153.08" width="1" height="35"/><rect class="cls-1" x="2540.99" y="167.58" width="1" height="43.72"/><rect class="cls-1" x="2554.13" y="182.1" width="1" height="19.37"/><rect class="cls-1" x="2567.27" y="146" width="1" height="60.12"/><rect class="cls-1" x="2580.4" y="146" width="1" height="67.3"/><rect class="cls-1" x="2593.54" y="159" width="1" height="18.83"/><rect class="cls-1" x="2606.67" y="123.14" width="1" height="54.69"/><rect class="cls-1" x="2619.81" y="115.5" width="1" height="43.5"/><rect class="cls-1" x="2632.94" y="118.5" width="1" height="18.75"/><rect class="cls-1" x="2646.08" y="123.14" width="1" height="37.96"/><rect class="cls-1" x="2659.22" y="132.46" width="1" height="61.29"/><rect class="cls-1" x="2672.35" y="166.27" width="1" height="21.81"/><rect class="cls-1" x="2685.49" y="174.19" width="1" height="40.12"/><rect class="cls-1" x="2698.62" y="200.75" width="1" height="31.92"/><rect class="cls-1" x="2712.09" y="195" width="1" height="58.08"/><rect class="cls-1" x="2725.55" y="228" width="1" height="31.58"/><rect class="cls-1" x="2739.01" y="232.67" width="1" height="53.41"/><rect class="cls-1" x="2752.48" y="254.67" width="1" height="18.29"/><rect class="cls-1" x="2765.94" y="257.13" width="1" height="37.37"/><rect class="cls-1" x="2779.4" y="243.79" width="1" height="34.71"/><rect class="cls-1" x="2792.87" y="251" width="1" height="12.81"/><rect class="cls-1" x="2806.33" y="216.71" width="1" height="44.43"/><rect class="cls-1" x="2819.79" y="219.3" width="1" height="30.49"/><rect class="cls-1" x="2833.25" y="195" width="1" height="56"/><rect class="cls-1" x="2846.72" y="185" width="1" height="30.58"/><rect class="cls-1" x="2860.18" y="191.79" width="1" height="19.52"/><rect class="cls-1" x="2873.64" y="194.49" width="1" height="33.51"/><rect class="cls-1" x="2887.11" y="200.75" width="1" height="27.25"/><rect class="cls-1" x="2900.57" y="203.93" width="1" height="50.74"/><rect class="cls-1" x="2914.03" y="191.79" width="1" height="45.54"/><rect class="cls-1" x="2927.5" y="163.82" width="1" height="54.02"/><rect class="cls-1" x="2940.96" y="156.64" width="1" height="31.36"/><rect class="cls-1" x="2954.42" y="156.64" width="1" height="42.37"/><rect class="cls-1" x="2967.89" y="144" width="1" height="28.32"/><rect class="cls-1" x="2981.35" y="111.88" width="1" height="65.62"/><rect class="cls-1" x="2994.81" y="105.7" width="1" height="43.3"/><rect class="cls-1" x="3008.28" y="79.5" width="1" height="62.04"/><rect class="cls-1" x="3021.74" y="79.5" width="1" height="31.02"/><rect class="cls-1" x="3035.2" y="76.49" width="1" height="15.83"/><rect class="cls-1" x="3048.67" y="60.66" width="1" height="47.49"/><rect class="cls-1" x="3062.13" y="68.58" width="1" height="30.59"/><rect class="cls-1" x="3075.59" y="52" width="1" height="37.5"/><rect class="cls-1" x="3089.06" y="66.12" width="1" height="65.32"/><rect class="cls-1" x="3102.52" y="92.32" width="1" height="29.66"/><rect class="cls-1" x="3115.98" y="76.49" width="1" height="35.39"/><rect class="cls-1" x="3129.45" y="92.32" width="1" height="35.02"/><rect class="cls-1" x="3142.91" y="102.5" width="1" height="63.77"/><rect class="cls-1" x="3156.37" y="92.32" width="1" height="23.75"/><rect class="cls-1" x="3169.84" y="52" width="1" height="64.07"/><rect class="cls-1" x="3183.3" y="56.5" width="1" height="30.37"/><rect class="cls-1" x="3196.76" y="12.5" width="1" height="67"/><rect class="cls-1" x="3210.23" y="18.5" width="1" height="28.77"/><rect class="cls-1" x="3223.69" y="26.5" width="1" height="63"/><rect class="cls-1" x="3237.15" y="60.66" width="1" height="15.83"/><rect class="cls-1" x="3250.62" y="46" width="1" height="33.5"/><rect class="cls-1" x="3264.08" width="1" height="67.31"/><rect class="cls-1" x="3277.54" y="3.5" width="1" height="46"/><rect class="cls-1" x="3291.01" y="9.7" width="1" height="29.66"/><rect class="cls-1" x="3304.47" y="24.53" width="1" height="15.83"/><rect class="cls-1" x="3317.93" y="12.5" width="1" height="40.25"/><rect class="cls-1" x="2497.43" y="138.25" width="9.32" height="29.66"/><rect class="cls-1" x="2536.83" y="173.25" width="9.32" height="29.66"/><rect class="cls-1" x="2602.51" y="138.25" width="9.32" height="29.66"/><rect class="cls-1" x="2734.85" y="238.25" width="9.32" height="29.66"/><rect class="cls-1" x="2802.17" y="225.75" width="9.32" height="29.66"/><rect class="cls-1" x="2815.63" y="225.75" width="9.32" height="14.83"/><rect class="cls-1" x="2990.65" y="121.99" width="9.32" height="19.56"/><rect class="cls-1" x="3273.38" y="9.7" width="9.32" height="29.66"/><rect class="cls-1" x="2896.41" y="217.84" width="9.32" height="29.66"/><rect class="cls-1" x="2909.87" y="200.75" width="9.32" height="29.66"/><rect class="cls-1" x="2829.09" y="201.47" width="9.32" height="39.11"/><rect class="cls-1" x="3004.12" y="92.32" width="9.32" height="39.11"/><rect class="cls-1" x="3138.75" y="107.15" width="9.32" height="39.11"/><rect class="cls-1" x="2977.19" y="121.99" width="9.32" height="39.11"/><rect class="cls-1" x="3084.9" y="72.77" width="9.32" height="39.11"/><rect class="cls-1" x="3259.92" y="20.8" width="9.32" height="39.11"/><rect class="cls-1" x="3219.53" y="32.44" width="9.32" height="39.11"/><rect class="cls-1" x="3192.6" y="32.44" width="9.32" height="39.11"/><rect class="cls-1" x="3165.68" y="67.31" width="9.32" height="39.11"/><rect class="cls-1" x="2923.34" y="174.19" width="9.32" height="39.11"/><rect class="cls-1" x="2707.92" y="200.29" width="9.32" height="37.04"/><rect class="cls-1" x="2681.33" y="178.92" width="9.32" height="29.66"/><rect class="cls-1" x="2615.65" y="130" width="9.32" height="23.08"/><rect class="cls-1" x="2761.78" y="263" width="9.32" height="23.08"/><rect class="cls-1" x="2641.92" y="126.71" width="9.32" height="23.08"/><rect class="cls-1" x="2563.11" y="159" width="9.32" height="42.47"/><rect class="cls-1" x="2576.24" y="152.02" width="9.32" height="42.47"/><rect class="cls-1" x="2655.05" y="137.76" width="9.32" height="42.47"/><rect class="cls-1" x="2523.7" y="161.33" width="9.32" height="18.95"/><rect class="cls-1" x="2510.56" y="165.46" width="9.32" height="4.92"/><rect class="cls-1" x="2589.38" y="163" width="9.32" height="4.92"/><rect class="cls-1" x="2694.46" y="206.12" width="9.32" height="16.38"/><rect class="cls-1" x="2668.19" y="177.83" width="9.32" height="4.92"/><rect class="cls-1" x="2748.31" y="262.58" width="9.32" height="4.92"/><rect class="cls-1" x="2788.7" y="254.67" width="9.32" height="4.92"/><rect class="cls-1" x="2856.02" y="199.01" width="9.32" height="4.92"/><rect class="cls-1" x="2950.26" y="163.82" width="9.32" height="24.27"/><rect class="cls-1" x="3031.04" y="81.95" width="9.32" height="4.92"/><rect class="cls-1" x="3152.21" y="105.7" width="9.32" height="4.92"/><rect class="cls-1" x="3232.99" y="66.12" width="9.32" height="4.92"/><rect class="cls-1" x="3300.31" y="29.99" width="9.32" height="4.92"/><rect class="cls-1" x="2628.78" y="123.14" width="9.32" height="9.32"/><rect class="cls-1" x="2721.39" y="232.67" width="9.32" height="15.83"/><rect class="cls-1" x="2775.24" y="257.13" width="9.32" height="15.83"/><rect class="cls-1" x="2842.56" y="195" width="9.32" height="15.83"/><rect class="cls-1" x="2869.48" y="199.75" width="9.32" height="15.83"/><rect class="cls-1" x="3044.51" y="84.41" width="9.32" height="15.83"/><rect class="cls-1" x="3111.82" y="92.32" width="9.32" height="15.83"/><rect class="cls-1" x="2882.95" y="206.39" width="9.32" height="15.83"/><rect class="cls-1" x="2936.8" y="166.27" width="9.32" height="15.83"/><rect class="cls-1" x="2963.73" y="151.08" width="9.32" height="15.83"/><rect class="cls-1" x="3071.43" y="68.58" width="9.32" height="15.83"/><rect class="cls-1" x="3179.14" y="67.17" width="9.32" height="9.32"/><rect class="cls-1" x="3057.97" y="76.49" width="9.32" height="15.83"/><rect class="cls-1" x="3206.07" y="24.53" width="9.32" height="15.83"/><rect class="cls-1" x="3017.58" y="84.41" width="9.32" height="15.83"/><rect class="cls-1" x="3125.29" y="100.24" width="9.32" height="15.83"/><rect class="cls-1" x="3246.46" y="52.75" width="9.32" height="15.83"/><rect class="cls-1" x="3098.36" y="99.17" width="9.32" height="15.83"/><rect class="cls-1" x="3286.85" y="16.61" width="9.32" height="15.83"/><rect class="cls-1" x="3313.77" y="31.44" width="9.32" height="15.83"/><rect class="cls-1" x="2549.97" y="189.08" width="9.32" height="9.32"/><rect class="cls-1" x="840.91" y="346.78" width="1" height="50.12"/><rect class="cls-1" x="854.05" y="384.74" width="1" height="16.73"/><rect class="cls-1" x="867.19" y="376.73" width="1" height="35"/><rect class="cls-1" x="880.32" y="391.23" width="1" height="43.72"/><rect class="cls-1" x="893.46" y="405.75" width="1" height="19.37"/><rect class="cls-1" x="906.59" y="369.64" width="1" height="60.12"/><rect class="cls-1" x="919.73" y="369.64" width="1" height="67.3"/><rect class="cls-1" x="932.86" y="382.64" width="1" height="18.83"/><rect class="cls-1" x="946" y="346.78" width="1" height="54.69"/><rect class="cls-1" x="959.13" y="339.14" width="1" height="43.5"/><rect class="cls-1" x="972.27" y="342.14" width="1" height="18.75"/><rect class="cls-1" x="985.41" y="346.78" width="1" height="37.96"/><rect class="cls-1" x="998.54" y="356.1" width="1" height="61.29"/><rect class="cls-1" x="1011.68" y="389.92" width="1" height="21.81"/><rect class="cls-1" x="1024.81" y="397.83" width="1" height="40.12"/><rect class="cls-1" x="1037.95" y="424.4" width="1" height="31.92"/><rect class="cls-1" x="1051.41" y="418.64" width="1" height="58.09"/><rect class="cls-1" x="1064.88" y="451.64" width="1" height="31.59"/><rect class="cls-1" x="1078.34" y="456.31" width="1" height="53.42"/><rect class="cls-1" x="1091.8" y="478.31" width="1" height="18.29"/><rect class="cls-1" x="1105.26" y="480.77" width="1" height="37.37"/><rect class="cls-1" x="1118.73" y="467.43" width="1" height="34.71"/><rect class="cls-1" x="1132.19" y="474.64" width="1" height="12.81"/><rect class="cls-1" x="1145.65" y="440.35" width="1" height="44.43"/><rect class="cls-1" x="1159.12" y="442.94" width="1" height="30.49"/><rect class="cls-1" x="1172.58" y="418.64" width="1" height="56"/><rect class="cls-1" x="1186.04" y="408.64" width="1" height="30.59"/><rect class="cls-1" x="1199.51" y="415.43" width="1" height="19.52"/><rect class="cls-1" x="1212.97" y="418.13" width="1" height="33.51"/><rect class="cls-1" x="1226.43" y="424.4" width="1" height="27.25"/><rect class="cls-1" x="1239.9" y="427.57" width="1" height="50.74"/><rect class="cls-1" x="1253.36" y="415.43" width="1" height="45.54"/><rect class="cls-1" x="1266.82" y="387.46" width="1" height="54.02"/><rect class="cls-1" x="1280.29" y="380.28" width="1" height="31.36"/><rect class="cls-1" x="1293.75" y="380.28" width="1" height="42.37"/><rect class="cls-1" x="1307.21" y="367.64" width="1" height="28.32"/><rect class="cls-1" x="1320.68" y="335.52" width="1" height="65.62"/><rect class="cls-1" x="1334.14" y="329.34" width="1" height="43.3"/><rect class="cls-1" x="1347.6" y="303.14" width="1" height="62.04"/><rect class="cls-1" x="1361.07" y="303.14" width="1" height="31.02"/><rect class="cls-1" x="1374.53" y="300.14" width="1" height="15.83"/><rect class="cls-1" x="1387.99" y="284.3" width="1" height="47.49"/><rect class="cls-1" x="1401.46" y="292.22" width="1" height="30.59"/><rect class="cls-1" x="1414.92" y="275.64" width="1" height="37.5"/><rect class="cls-1" x="1428.38" y="289.76" width="1" height="65.32"/><rect class="cls-1" x="1441.85" y="315.97" width="1" height="29.66"/><rect class="cls-1" x="1455.31" y="300.14" width="1" height="35.39"/><rect class="cls-1" x="1468.77" y="315.97" width="1" height="35.02"/><rect class="cls-1" x="1482.24" y="326.14" width="1" height="63.77"/><rect class="cls-1" x="1495.7" y="315.97" width="1" height="23.75"/><rect class="cls-1" x="1509.16" y="275.64" width="1" height="64.07"/><rect class="cls-1" x="1522.63" y="280.14" width="1" height="30.37"/><rect class="cls-1" x="1536.09" y="236.14" width="1" height="67"/><rect class="cls-1" x="1549.55" y="242.14" width="1" height="28.77"/><rect class="cls-1" x="1563.02" y="250.14" width="1" height="63"/><rect class="cls-1" x="1576.48" y="284.3" width="1" height="15.83"/><rect class="cls-1" x="1589.94" y="269.64" width="1" height="33.5"/><rect class="cls-1" x="1603.41" y="223.64" width="1" height="67.31"/><rect class="cls-1" x="1616.87" y="227.14" width="1" height="46"/><rect class="cls-1" x="1630.33" y="233.34" width="1" height="29.66"/><rect class="cls-1" x="1643.8" y="248.17" width="1" height="15.83"/><rect class="cls-1" x="1657.26" y="236.14" width="1" height="40.25"/><rect class="cls-1" x="836.75" y="361.9" width="9.32" height="29.66"/><rect class="cls-1" x="876.16" y="396.9" width="9.32" height="29.66"/><rect class="cls-1" x="941.84" y="361.9" width="9.32" height="29.66"/><rect class="cls-1" x="1074.18" y="461.9" width="9.32" height="29.66"/><rect class="cls-1" x="1141.49" y="449.4" width="9.32" height="29.66"/><rect class="cls-1" x="1154.96" y="449.4" width="9.32" height="14.83"/><rect class="cls-1" x="1329.98" y="345.63" width="9.32" height="19.56"/><rect class="cls-1" x="1612.71" y="233.34" width="9.32" height="29.66"/><rect class="cls-1" x="1235.74" y="441.48" width="9.32" height="29.66"/><rect class="cls-1" x="1249.2" y="424.4" width="9.32" height="29.66"/><rect class="cls-1" x="1168.42" y="425.11" width="9.32" height="39.11"/><rect class="cls-1" x="1343.44" y="315.97" width="9.32" height="39.11"/><rect class="cls-1" x="1478.08" y="330.8" width="9.32" height="39.11"/><rect class="cls-1" x="1316.52" y="345.63" width="9.32" height="39.11"/><rect class="cls-1" x="1424.22" y="296.41" width="9.32" height="39.11"/><rect class="cls-1" x="1599.25" y="244.44" width="9.32" height="39.11"/><rect class="cls-1" x="1558.86" y="256.08" width="9.32" height="39.11"/><rect class="cls-1" x="1531.93" y="256.08" width="9.32" height="39.11"/><rect class="cls-1" x="1505" y="290.95" width="9.32" height="39.11"/><rect class="cls-1" x="1262.66" y="397.83" width="9.32" height="39.11"/><rect class="cls-1" x="1047.25" y="423.93" width="9.32" height="37.04"/><rect class="cls-1" x="1020.65" y="402.56" width="9.32" height="29.66"/><rect class="cls-1" x="954.97" y="353.64" width="9.32" height="23.08"/><rect class="cls-1" x="1101.1" y="486.64" width="9.32" height="23.08"/><rect class="cls-1" x="981.25" y="350.35" width="9.32" height="23.08"/><rect class="cls-1" x="902.43" y="382.64" width="9.32" height="42.47"/><rect class="cls-1" x="915.57" y="375.66" width="9.32" height="42.47"/><rect class="cls-1" x="994.38" y="361.41" width="9.32" height="42.47"/><rect class="cls-1" x="863.02" y="384.97" width="9.32" height="18.95"/><rect class="cls-1" x="849.89" y="389.1" width="9.32" height="4.92"/><rect class="cls-1" x="928.7" y="386.64" width="9.32" height="4.92"/><rect class="cls-1" x="1033.79" y="429.76" width="9.32" height="16.38"/><rect class="cls-1" x="1007.52" y="401.47" width="9.32" height="4.92"/><rect class="cls-1" x="1087.64" y="486.23" width="9.32" height="4.92"/><rect class="cls-1" x="1128.03" y="478.31" width="9.32" height="4.92"/><rect class="cls-1" x="1195.35" y="422.65" width="9.32" height="4.92"/><rect class="cls-1" x="1289.59" y="387.46" width="9.32" height="24.27"/><rect class="cls-1" x="1370.37" y="305.59" width="9.32" height="4.92"/><rect class="cls-1" x="1491.54" y="329.34" width="9.32" height="4.92"/><rect class="cls-1" x="1572.32" y="289.76" width="9.32" height="4.92"/><rect class="cls-1" x="1639.64" y="253.63" width="9.32" height="4.92"/><rect class="cls-1" x="968.11" y="346.78" width="9.32" height="9.32"/><rect class="cls-1" x="1060.71" y="456.31" width="9.32" height="15.83"/><rect class="cls-1" x="1114.57" y="480.77" width="9.32" height="15.83"/><rect class="cls-1" x="1181.88" y="418.64" width="9.32" height="15.83"/><rect class="cls-1" x="1208.81" y="423.4" width="9.32" height="15.83"/><rect class="cls-1" x="1383.83" y="308.05" width="9.32" height="15.83"/><rect class="cls-1" x="1451.15" y="315.97" width="9.32" height="15.83"/><rect class="cls-1" x="1222.27" y="430.04" width="9.32" height="15.83"/><rect class="cls-1" x="1276.13" y="389.91" width="9.32" height="15.83"/><rect class="cls-1" x="1303.05" y="374.73" width="9.32" height="15.83"/><rect class="cls-1" x="1410.76" y="292.22" width="9.32" height="15.83"/><rect class="cls-1" x="1518.47" y="290.81" width="9.32" height="9.32"/><rect class="cls-1" x="1397.3" y="300.14" width="9.32" height="15.83"/><rect class="cls-1" x="1545.39" y="248.17" width="9.32" height="15.83"/><rect class="cls-1" x="1356.91" y="308.05" width="9.32" height="15.83"/><rect class="cls-1" x="1464.61" y="323.88" width="9.32" height="15.83"/><rect class="cls-1" x="1585.78" y="276.39" width="9.32" height="15.83"/><rect class="cls-1" x="1437.69" y="322.81" width="9.32" height="15.83"/><rect class="cls-1" x="1626.17" y="240.25" width="9.32" height="15.83"/><rect class="cls-1" x="1653.1" y="255.08" width="9.32" height="15.83"/><rect class="cls-1" x="889.3" y="412.73" width="9.32" height="9.32"/></g></g></svg>