<svg xmlns="http://www.w3.org/2000/svg" viewBox="0 0 4160.09 778.26"><defs><style>.cls-1{fill:#9b9b9b;}</style></defs><title>Asset 4</title><g id="Layer_2" data-name="Layer 2"><g id="Layer_1-2" data-name="Layer 1"><rect class="cls-1" x="4.2" y="605.43" width="1.01" height="50.54"/><rect class="cls-1" x="17.44" y="643.72" width="1.01" height="16.87"/><rect class="cls-1" x="30.69" y="635.64" width="1.01" height="35.3"/><rect class="cls-1" x="43.94" y="650.26" width="1.01" height="44.1"/><rect class="cls-1" x="57.19" y="664.9" width="1.01" height="19.53"/><rect class="cls-1" x="70.43" y="628.49" width="1.01" height="60.63"/><rect class="cls-1" x="83.68" y="628.49" width="1.01" height="67.88"/><rect class="cls-1" x="96.93" y="641.6" width="1.01" height="18.99"/><rect class="cls-1" x="110.18" y="605.43" width="1.01" height="55.16"/><rect class="cls-1" x="123.42" y="597.73" width="1.01" height="43.87"/><rect class="cls-1" x="136.67" y="600.76" width="1.01" height="18.91"/><rect class="cls-1" x="149.92" y="605.43" width="1.01" height="38.29"/><rect class="cls-1" x="163.16" y="614.83" width="1.01" height="61.81"/><rect class="cls-1" x="176.41" y="648.94" width="1.01" height="22"/><rect class="cls-1" x="189.66" y="656.92" width="1.01" height="40.46"/><rect class="cls-1" x="202.91" y="683.71" width="1.01" height="32.19"/><rect class="cls-1" x="216.48" y="677.91" width="1.01" height="58.58"/><rect class="cls-1" x="230.06" y="711.19" width="1.01" height="31.85"/><rect class="cls-1" x="243.64" y="715.9" width="1.01" height="53.87"/><rect class="cls-1" x="257.22" y="738.09" width="1.01" height="18.44"/><rect class="cls-1" x="270.8" y="740.56" width="1.01" height="37.69"/><rect class="cls-1" x="284.37" y="727.12" width="1.01" height="35"/><rect class="cls-1" x="297.95" y="734.39" width="1.01" height="12.92"/><rect class="cls-1" x="311.53" y="699.81" width="1.01" height="44.81"/><rect class="cls-1" x="325.11" y="702.42" width="1.01" height="30.75"/><rect class="cls-1" x="338.68" y="677.91" width="1.01" height="56.48"/><rect class="cls-1" x="352.26" y="667.82" width="1.01" height="30.85"/><rect class="cls-1" x="365.84" y="674.67" width="1.01" height="19.69"/><rect class="cls-1" x="379.42" y="677.39" width="1.01" height="33.8"/><rect class="cls-1" x="393" y="683.71" width="1.01" height="27.48"/><rect class="cls-1" x="406.57" y="686.91" width="1.01" height="51.17"/><rect class="cls-1" x="420.15" y="674.67" width="1.01" height="45.93"/><rect class="cls-1" x="433.73" y="646.46" width="1.01" height="54.48"/><rect class="cls-1" x="447.31" y="639.22" width="1.01" height="31.63"/><rect class="cls-1" x="460.89" y="639.22" width="1.01" height="42.73"/><rect class="cls-1" x="474.46" y="626.47" width="1.01" height="28.56"/><rect class="cls-1" x="488.04" y="594.08" width="1.01" height="66.18"/><rect class="cls-1" x="501.62" y="587.85" width="1.01" height="43.67"/><rect class="cls-1" x="515.2" y="561.43" width="1.01" height="62.57"/><rect class="cls-1" x="528.78" y="561.43" width="1.01" height="31.28"/><rect class="cls-1" x="542.35" y="558.39" width="1.01" height="15.97"/><rect class="cls-1" x="555.93" y="542.43" width="1.01" height="47.9"/><rect class="cls-1" x="569.51" y="550.41" width="1.01" height="30.85"/><rect class="cls-1" x="583.09" y="533.69" width="1.01" height="37.82"/><rect class="cls-1" x="596.66" y="547.93" width="1.01" height="65.87"/><rect class="cls-1" x="610.24" y="574.36" width="1.01" height="29.91"/><rect class="cls-1" x="623.82" y="558.39" width="1.01" height="35.69"/><rect class="cls-1" x="637.4" y="574.36" width="1.01" height="35.32"/><rect class="cls-1" x="650.98" y="584.62" width="1.01" height="64.32"/><rect class="cls-1" x="664.55" y="574.36" width="1.01" height="23.95"/><rect class="cls-1" x="678.13" y="533.69" width="1.01" height="64.61"/><rect class="cls-1" x="691.71" y="538.23" width="1.01" height="30.63"/><rect class="cls-1" x="705.29" y="493.86" width="1.01" height="67.57"/><rect class="cls-1" x="718.86" y="499.91" width="1.01" height="29.02"/><rect class="cls-1" x="732.44" y="507.97" width="1.01" height="63.54"/><rect class="cls-1" x="746.02" y="542.43" width="1.01" height="15.97"/><rect class="cls-1" x="759.6" y="527.64" width="1.01" height="33.79"/><rect class="cls-1" x="773.18" y="481.25" width="1.01" height="67.88"/><rect class="cls-1" x="786.75" y="484.78" width="1.01" height="46.39"/><rect class="cls-1" x="800.33" y="491.03" width="1.01" height="29.91"/><rect class="cls-1" x="813.91" y="505.99" width="1.01" height="15.96"/><rect class="cls-1" x="827.49" y="493.86" width="1.01" height="40.59"/><rect class="cls-1" y="620.68" width="9.4" height="29.91"/><rect class="cls-1" x="39.74" y="655.98" width="9.4" height="29.91"/><rect class="cls-1" x="105.98" y="620.68" width="9.4" height="29.91"/><rect class="cls-1" x="239.44" y="721.53" width="9.4" height="29.91"/><rect class="cls-1" x="307.33" y="708.92" width="9.4" height="29.91"/><rect class="cls-1" x="320.91" y="708.92" width="9.4" height="14.96"/><rect class="cls-1" x="497.42" y="604.27" width="9.4" height="19.72"/><rect class="cls-1" x="782.56" y="491.03" width="9.4" height="29.91"/><rect class="cls-1" x="402.38" y="700.94" width="9.4" height="29.91"/><rect class="cls-1" x="415.96" y="683.71" width="9.4" height="29.91"/><rect class="cls-1" x="334.49" y="684.43" width="9.4" height="39.45"/><rect class="cls-1" x="511" y="574.36" width="9.4" height="39.45"/><rect class="cls-1" x="646.78" y="589.32" width="9.4" height="39.45"/><rect class="cls-1" x="483.85" y="604.27" width="9.4" height="39.45"/><rect class="cls-1" x="592.47" y="554.64" width="9.4" height="39.45"/><rect class="cls-1" x="768.98" y="502.23" width="9.4" height="39.45"/><rect class="cls-1" x="728.25" y="513.97" width="9.4" height="39.45"/><rect class="cls-1" x="701.09" y="513.97" width="9.4" height="39.45"/><rect class="cls-1" x="673.93" y="549.13" width="9.4" height="39.45"/><rect class="cls-1" x="429.53" y="656.92" width="9.4" height="39.45"/><rect class="cls-1" x="212.29" y="683.25" width="9.4" height="37.35"/><rect class="cls-1" x="185.46" y="661.69" width="9.4" height="29.91"/><rect class="cls-1" x="119.23" y="612.36" width="9.4" height="23.28"/><rect class="cls-1" x="266.6" y="746.49" width="9.4" height="23.28"/><rect class="cls-1" x="145.72" y="609.04" width="9.4" height="23.28"/><rect class="cls-1" x="66.24" y="641.6" width="9.4" height="42.83"/><rect class="cls-1" x="79.48" y="634.56" width="9.4" height="42.83"/><rect class="cls-1" x="158.97" y="620.19" width="9.4" height="42.83"/><rect class="cls-1" x="26.49" y="643.96" width="9.4" height="19.12"/><rect class="cls-1" x="13.25" y="648.11" width="9.4" height="4.96"/><rect class="cls-1" x="92.73" y="645.64" width="9.4" height="4.96"/><rect class="cls-1" x="198.71" y="689.12" width="9.4" height="16.52"/><rect class="cls-1" x="172.22" y="660.59" width="9.4" height="4.96"/><rect class="cls-1" x="253.02" y="746.07" width="9.4" height="4.96"/><rect class="cls-1" x="293.76" y="738.09" width="9.4" height="4.96"/><rect class="cls-1" x="361.64" y="681.96" width="9.4" height="4.96"/><rect class="cls-1" x="456.69" y="646.46" width="9.4" height="24.48"/><rect class="cls-1" x="538.16" y="563.9" width="9.4" height="4.96"/><rect class="cls-1" x="660.36" y="587.85" width="9.4" height="4.96"/><rect class="cls-1" x="741.82" y="547.93" width="9.4" height="4.96"/><rect class="cls-1" x="809.71" y="511.49" width="9.4" height="4.96"/><rect class="cls-1" x="132.47" y="605.43" width="9.4" height="9.4"/><rect class="cls-1" x="225.87" y="715.9" width="9.4" height="15.97"/><rect class="cls-1" x="280.18" y="740.56" width="9.4" height="15.97"/><rect class="cls-1" x="348.07" y="677.91" width="9.4" height="15.97"/><rect class="cls-1" x="375.22" y="682.7" width="9.4" height="15.97"/><rect class="cls-1" x="551.73" y="566.38" width="9.4" height="15.97"/><rect class="cls-1" x="619.62" y="574.36" width="9.4" height="15.97"/><rect class="cls-1" x="388.8" y="689.4" width="9.4" height="15.97"/><rect class="cls-1" x="443.11" y="648.94" width="9.4" height="15.97"/><rect class="cls-1" x="470.27" y="633.62" width="9.4" height="15.97"/><rect class="cls-1" x="578.89" y="550.41" width="9.4" height="15.97"/><rect class="cls-1" x="687.51" y="548.99" width="9.4" height="9.4"/><rect class="cls-1" x="565.31" y="558.39" width="9.4" height="15.97"/><rect class="cls-1" x="714.67" y="505.99" width="9.4" height="15.97"/><rect class="cls-1" x="524.58" y="566.38" width="9.4" height="15.97"/><rect class="cls-1" x="633.2" y="582.34" width="9.4" height="15.97"/><rect class="cls-1" x="755.4" y="534.45" width="9.4" height="15.97"/><rect class="cls-1" x="606.05" y="581.26" width="9.4" height="15.97"/><rect class="cls-1" x="796.14" y="498" width="9.4" height="15.97"/><rect class="cls-1" x="823.29" y="512.96" width="9.4" height="15.97"/><rect class="cls-1" x="52.99" y="671.94" width="9.4" height="9.4"/><rect class="cls-1" x="3331.59" y="124.18" width="1.01" height="50.54"/><rect class="cls-1" x="3344.84" y="162.47" width="1.01" height="16.87"/><rect class="cls-1" x="3358.09" y="154.39" width="1.01" height="35.3"/><rect class="cls-1" x="3371.34" y="169.01" width="1.01" height="44.1"/><rect class="cls-1" x="3384.58" y="183.65" width="1.01" height="19.53"/><rect class="cls-1" x="3397.83" y="147.24" width="1.01" height="60.63"/><rect class="cls-1" x="3411.08" y="147.24" width="1.01" height="67.88"/><rect class="cls-1" x="3424.33" y="160.35" width="1.01" height="18.99"/><rect class="cls-1" x="3437.57" y="124.18" width="1.01" height="55.16"/><rect class="cls-1" x="3450.82" y="116.48" width="1.01" height="43.87"/><rect class="cls-1" x="3464.07" y="119.51" width="1.01" height="18.91"/><rect class="cls-1" x="3477.31" y="124.18" width="1.01" height="38.29"/><rect class="cls-1" x="3490.56" y="133.58" width="1.01" height="61.81"/><rect class="cls-1" x="3503.81" y="167.69" width="1.01" height="22"/><rect class="cls-1" x="3517.06" y="175.67" width="1.01" height="40.46"/><rect class="cls-1" x="3530.3" y="202.46" width="1.01" height="32.19"/><rect class="cls-1" x="3543.88" y="196.66" width="1.01" height="58.58"/><rect class="cls-1" x="3557.46" y="229.94" width="1.01" height="31.85"/><rect class="cls-1" x="3571.04" y="234.65" width="1.01" height="53.87"/><rect class="cls-1" x="3584.62" y="256.84" width="1.01" height="18.44"/><rect class="cls-1" x="3598.19" y="259.31" width="1.01" height="37.69"/><rect class="cls-1" x="3611.77" y="245.87" width="1.01" height="35"/><rect class="cls-1" x="3625.35" y="253.14" width="1.01" height="12.92"/><rect class="cls-1" x="3638.93" y="218.56" width="1.01" height="44.81"/><rect class="cls-1" x="3652.5" y="221.17" width="1.01" height="30.75"/><rect class="cls-1" x="3666.08" y="196.66" width="1.01" height="56.48"/><rect class="cls-1" x="3679.66" y="186.57" width="1.01" height="30.85"/><rect class="cls-1" x="3693.24" y="193.42" width="1.01" height="19.69"/><rect class="cls-1" x="3706.82" y="196.14" width="1.01" height="33.8"/><rect class="cls-1" x="3720.39" y="202.46" width="1.01" height="27.48"/><rect class="cls-1" x="3733.97" y="205.66" width="1.01" height="51.17"/><rect class="cls-1" x="3747.55" y="193.42" width="1.01" height="45.93"/><rect class="cls-1" x="3761.13" y="165.21" width="1.01" height="54.48"/><rect class="cls-1" x="3774.7" y="157.97" width="1.01" height="31.63"/><rect class="cls-1" x="3788.28" y="157.97" width="1.01" height="42.73"/><rect class="cls-1" x="3801.86" y="145.23" width="1.01" height="28.56"/><rect class="cls-1" x="3815.44" y="112.83" width="1.01" height="66.18"/><rect class="cls-1" x="3829.02" y="106.6" width="1.01" height="43.67"/><rect class="cls-1" x="3842.59" y="80.18" width="1.01" height="62.57"/><rect class="cls-1" x="3856.17" y="80.18" width="1.01" height="31.28"/><rect class="cls-1" x="3869.75" y="77.14" width="1.01" height="15.97"/><rect class="cls-1" x="3883.33" y="61.18" width="1.01" height="47.9"/><rect class="cls-1" x="3896.91" y="69.16" width="1.01" height="30.85"/><rect class="cls-1" x="3910.48" y="52.44" width="1.01" height="37.82"/><rect class="cls-1" x="3924.06" y="66.68" width="1.01" height="65.87"/><rect class="cls-1" x="3937.64" y="93.11" width="1.01" height="29.91"/><rect class="cls-1" x="3951.22" y="77.14" width="1.01" height="35.69"/><rect class="cls-1" x="3964.79" y="93.11" width="1.01" height="35.32"/><rect class="cls-1" x="3978.37" y="103.37" width="1.01" height="64.32"/><rect class="cls-1" x="3991.95" y="93.11" width="1.01" height="23.95"/><rect class="cls-1" x="4005.53" y="52.44" width="1.01" height="64.61"/><rect class="cls-1" x="4019.11" y="56.98" width="1.01" height="30.63"/><rect class="cls-1" x="4032.68" y="12.61" width="1.01" height="67.57"/><rect class="cls-1" x="4046.26" y="18.66" width="1.01" height="29.02"/><rect class="cls-1" x="4059.84" y="26.73" width="1.01" height="63.54"/><rect class="cls-1" x="4073.42" y="61.18" width="1.01" height="15.97"/><rect class="cls-1" x="4087" y="46.39" width="1.01" height="33.79"/><rect class="cls-1" x="4100.57" width="1.01" height="67.88"/><rect class="cls-1" x="4114.15" y="3.53" width="1.01" height="46.39"/><rect class="cls-1" x="4127.73" y="9.78" width="1.01" height="29.91"/><rect class="cls-1" x="4141.31" y="24.74" width="1.01" height="15.96"/><rect class="cls-1" x="4154.88" y="12.61" width="1.01" height="40.59"/><rect class="cls-1" x="3327.4" y="139.43" width="9.4" height="29.91"/><rect class="cls-1" x="3367.14" y="174.73" width="9.4" height="29.91"/><rect class="cls-1" x="3433.38" y="139.43" width="9.4" height="29.91"/><rect class="cls-1" x="3566.84" y="240.28" width="9.4" height="29.91"/><rect class="cls-1" x="3634.73" y="227.68" width="9.4" height="29.91"/><rect class="cls-1" x="3648.31" y="227.68" width="9.4" height="14.96"/><rect class="cls-1" x="3824.82" y="123.02" width="9.4" height="19.72"/><rect class="cls-1" x="4109.95" y="9.78" width="9.4" height="29.91"/><rect class="cls-1" x="3729.78" y="219.69" width="9.4" height="29.91"/><rect class="cls-1" x="3743.35" y="202.46" width="9.4" height="29.91"/><rect class="cls-1" x="3661.89" y="203.18" width="9.4" height="39.45"/><rect class="cls-1" x="3838.4" y="93.11" width="9.4" height="39.45"/><rect class="cls-1" x="3974.18" y="108.07" width="9.4" height="39.45"/><rect class="cls-1" x="3811.24" y="123.02" width="9.4" height="39.45"/><rect class="cls-1" x="3919.86" y="73.39" width="9.4" height="39.45"/><rect class="cls-1" x="4096.38" y="20.98" width="9.4" height="39.45"/><rect class="cls-1" x="4055.64" y="32.72" width="9.4" height="39.45"/><rect class="cls-1" x="4028.49" y="32.72" width="9.4" height="39.45"/><rect class="cls-1" x="4001.33" y="67.88" width="9.4" height="39.45"/><rect class="cls-1" x="3756.93" y="175.67" width="9.4" height="39.45"/><rect class="cls-1" x="3539.69" y="202" width="9.4" height="37.35"/><rect class="cls-1" x="3512.86" y="180.44" width="9.4" height="29.91"/><rect class="cls-1" x="3446.62" y="131.11" width="9.4" height="23.28"/><rect class="cls-1" x="3594" y="265.24" width="9.4" height="23.28"/><rect class="cls-1" x="3473.12" y="127.79" width="9.4" height="23.28"/><rect class="cls-1" x="3393.63" y="160.35" width="9.4" height="42.83"/><rect class="cls-1" x="3406.88" y="153.31" width="9.4" height="42.83"/><rect class="cls-1" x="3486.37" y="138.94" width="9.4" height="42.83"/><rect class="cls-1" x="3353.89" y="162.71" width="9.4" height="19.12"/><rect class="cls-1" x="3340.64" y="166.87" width="9.4" height="4.96"/><rect class="cls-1" x="3420.13" y="164.39" width="9.4" height="4.96"/><rect class="cls-1" x="3526.11" y="207.87" width="9.4" height="16.52"/><rect class="cls-1" x="3499.61" y="179.34" width="9.4" height="4.96"/><rect class="cls-1" x="3580.42" y="264.82" width="9.4" height="4.96"/><rect class="cls-1" x="3621.15" y="256.84" width="9.4" height="4.96"/><rect class="cls-1" x="3689.04" y="200.71" width="9.4" height="4.96"/><rect class="cls-1" x="3784.09" y="165.21" width="9.4" height="24.48"/><rect class="cls-1" x="3865.55" y="82.65" width="9.4" height="4.96"/><rect class="cls-1" x="3987.75" y="106.6" width="9.4" height="4.96"/><rect class="cls-1" x="4069.22" y="66.68" width="9.4" height="4.96"/><rect class="cls-1" x="4137.11" y="30.24" width="9.4" height="4.96"/><rect class="cls-1" x="3459.87" y="124.18" width="9.4" height="9.4"/><rect class="cls-1" x="3553.26" y="234.65" width="9.4" height="15.97"/><rect class="cls-1" x="3607.57" y="259.32" width="9.4" height="15.97"/><rect class="cls-1" x="3675.46" y="196.66" width="9.4" height="15.97"/><rect class="cls-1" x="3702.62" y="201.45" width="9.4" height="15.97"/><rect class="cls-1" x="3879.13" y="85.13" width="9.4" height="15.97"/><rect class="cls-1" x="3947.02" y="93.11" width="9.4" height="15.97"/><rect class="cls-1" x="3716.2" y="208.15" width="9.4" height="15.97"/><rect class="cls-1" x="3770.51" y="167.69" width="9.4" height="15.97"/><rect class="cls-1" x="3797.66" y="152.37" width="9.4" height="15.97"/><rect class="cls-1" x="3906.29" y="69.16" width="9.4" height="15.97"/><rect class="cls-1" x="4014.91" y="67.74" width="9.4" height="9.4"/><rect class="cls-1" x="3892.71" y="77.14" width="9.4" height="15.97"/><rect class="cls-1" x="4042.07" y="24.74" width="9.4" height="15.97"/><rect class="cls-1" x="3851.98" y="85.13" width="9.4" height="15.97"/><rect class="cls-1" x="3960.6" y="101.09" width="9.4" height="15.97"/><rect class="cls-1" x="4082.8" y="53.2" width="9.4" height="15.97"/><rect class="cls-1" x="3933.44" y="100.01" width="9.4" height="15.97"/><rect class="cls-1" x="4123.53" y="16.75" width="9.4" height="15.97"/><rect class="cls-1" x="4150.69" y="31.71" width="9.4" height="15.97"/><rect class="cls-1" x="3380.39" y="190.69" width="9.4" height="9.4"/><rect class="cls-1" x="1671.11" y="382.16" width="1" height="50.12"/><rect class="cls-1" x="1684.25" y="420.12" width="1" height="16.73"/><rect class="cls-1" x="1697.38" y="412.11" width="1" height="35"/><rect class="cls-1" x="1710.52" y="426.61" width="1" height="43.72"/><rect class="cls-1" x="1723.65" y="441.13" width="1" height="19.37"/><rect class="cls-1" x="1736.79" y="405.02" width="1" height="60.12"/><rect class="cls-1" x="1749.92" y="405.02" width="1" height="67.3"/><rect class="cls-1" x="1763.06" y="418.02" width="1" height="18.83"/><rect class="cls-1" x="1776.19" y="382.16" width="1" height="54.69"/><rect class="cls-1" x="1789.33" y="374.52" width="1" height="43.5"/><rect class="cls-1" x="1802.47" y="377.52" width="1" height="18.75"/><rect class="cls-1" x="1815.6" y="382.16" width="1" height="37.96"/><rect class="cls-1" x="1828.74" y="391.48" width="1" height="61.29"/><rect class="cls-1" x="1841.87" y="425.3" width="1" height="21.81"/><rect class="cls-1" x="1855.01" y="433.21" width="1" height="40.12"/><rect class="cls-1" x="1868.14" y="459.78" width="1" height="31.92"/><rect class="cls-1" x="1881.61" y="454.02" width="1" height="58.08"/><rect class="cls-1" x="1895.07" y="487.02" width="1" height="31.58"/><rect class="cls-1" x="1908.53" y="491.69" width="1" height="53.41"/><rect class="cls-1" x="1922" y="513.69" width="1" height="18.29"/><rect class="cls-1" x="1935.46" y="516.15" width="1" height="37.37"/><rect class="cls-1" x="1948.92" y="502.81" width="1" height="34.71"/><rect class="cls-1" x="1962.39" y="510.02" width="1" height="12.81"/><rect class="cls-1" x="1975.85" y="475.73" width="1" height="44.43"/><rect class="cls-1" x="1989.31" y="478.32" width="1" height="30.49"/><rect class="cls-1" x="2002.78" y="454.02" width="1" height="56"/><rect class="cls-1" x="2016.24" y="444.02" width="1" height="30.58"/><rect class="cls-1" x="2029.7" y="450.81" width="1" height="19.52"/><rect class="cls-1" x="2043.17" y="453.51" width="1" height="33.51"/><rect class="cls-1" x="2056.63" y="459.78" width="1" height="27.25"/><rect class="cls-1" x="2070.09" y="462.95" width="1" height="50.74"/><rect class="cls-1" x="2083.56" y="450.81" width="1" height="45.54"/><rect class="cls-1" x="2097.02" y="422.84" width="1" height="54.02"/><rect class="cls-1" x="2110.48" y="415.66" width="1" height="31.36"/><rect class="cls-1" x="2123.95" y="415.66" width="1" height="42.37"/><rect class="cls-1" x="2137.41" y="403.02" width="1" height="28.32"/><rect class="cls-1" x="2150.87" y="370.9" width="1" height="65.62"/><rect class="cls-1" x="2164.34" y="364.72" width="1" height="43.3"/><rect class="cls-1" x="2177.8" y="338.52" width="1" height="62.04"/><rect class="cls-1" x="2191.26" y="338.52" width="1" height="31.02"/><rect class="cls-1" x="2204.73" y="335.52" width="1" height="15.83"/><rect class="cls-1" x="2218.19" y="319.68" width="1" height="47.49"/><rect class="cls-1" x="2231.65" y="327.6" width="1" height="30.59"/><rect class="cls-1" x="2245.12" y="311.02" width="1" height="37.5"/><rect class="cls-1" x="2258.58" y="325.14" width="1" height="65.32"/><rect class="cls-1" x="2272.04" y="351.35" width="1" height="29.66"/><rect class="cls-1" x="2285.51" y="335.52" width="1" height="35.39"/><rect class="cls-1" x="2298.97" y="351.35" width="1" height="35.02"/><rect class="cls-1" x="2312.43" y="361.52" width="1" height="63.77"/><rect class="cls-1" x="2325.9" y="351.35" width="1" height="23.75"/><rect class="cls-1" x="2339.36" y="311.02" width="1" height="64.07"/><rect class="cls-1" x="2352.82" y="315.52" width="1" height="30.37"/><rect class="cls-1" x="2366.29" y="271.52" width="1" height="67"/><rect class="cls-1" x="2379.75" y="277.52" width="1" height="28.77"/><rect class="cls-1" x="2393.21" y="285.52" width="1" height="63"/><rect class="cls-1" x="2406.67" y="319.68" width="1" height="15.83"/><rect class="cls-1" x="2420.14" y="305.02" width="1" height="33.5"/><rect class="cls-1" x="2433.6" y="259.02" width="1" height="67.31"/><rect class="cls-1" x="2447.06" y="262.52" width="1" height="46"/><rect class="cls-1" x="2460.53" y="268.72" width="1" height="29.66"/><rect class="cls-1" x="2473.99" y="283.55" width="1" height="15.83"/><rect class="cls-1" x="2487.45" y="271.52" width="1" height="40.25"/><rect class="cls-1" x="1666.95" y="397.28" width="9.32" height="29.66"/><rect class="cls-1" x="1706.36" y="432.28" width="9.32" height="29.66"/><rect class="cls-1" x="1772.03" y="397.28" width="9.32" height="29.66"/><rect class="cls-1" x="1904.37" y="497.28" width="9.32" height="29.66"/><rect class="cls-1" x="1971.69" y="484.78" width="9.32" height="29.66"/><rect class="cls-1" x="1985.15" y="484.78" width="9.32" height="14.83"/><rect class="cls-1" x="2160.17" y="381.01" width="9.32" height="19.56"/><rect class="cls-1" x="2442.9" y="268.72" width="9.32" height="29.66"/><rect class="cls-1" x="2065.93" y="476.86" width="9.32" height="29.66"/><rect class="cls-1" x="2079.4" y="459.78" width="9.32" height="29.66"/><rect class="cls-1" x="1998.62" y="460.49" width="9.32" height="39.11"/><rect class="cls-1" x="2173.64" y="351.35" width="9.32" height="39.11"/><rect class="cls-1" x="2308.27" y="366.18" width="9.32" height="39.11"/><rect class="cls-1" x="2146.71" y="381.01" width="9.32" height="39.11"/><rect class="cls-1" x="2254.42" y="331.79" width="9.32" height="39.11"/><rect class="cls-1" x="2429.44" y="279.82" width="9.32" height="39.11"/><rect class="cls-1" x="2389.05" y="291.46" width="9.32" height="39.11"/><rect class="cls-1" x="2362.12" y="291.46" width="9.32" height="39.11"/><rect class="cls-1" x="2335.2" y="326.33" width="9.32" height="39.11"/><rect class="cls-1" x="2092.86" y="433.21" width="9.32" height="39.11"/><rect class="cls-1" x="1877.45" y="459.31" width="9.32" height="37.04"/><rect class="cls-1" x="1850.85" y="437.94" width="9.32" height="29.66"/><rect class="cls-1" x="1785.17" y="389.02" width="9.32" height="23.08"/><rect class="cls-1" x="1931.3" y="522.02" width="9.32" height="23.08"/><rect class="cls-1" x="1811.44" y="385.73" width="9.32" height="23.08"/><rect class="cls-1" x="1732.63" y="418.02" width="9.32" height="42.47"/><rect class="cls-1" x="1745.76" y="411.04" width="9.32" height="42.47"/><rect class="cls-1" x="1824.58" y="396.79" width="9.32" height="42.47"/><rect class="cls-1" x="1693.22" y="420.35" width="9.32" height="18.95"/><rect class="cls-1" x="1680.08" y="424.48" width="9.32" height="4.92"/><rect class="cls-1" x="1758.9" y="422.02" width="9.32" height="4.92"/><rect class="cls-1" x="1863.98" y="465.14" width="9.32" height="16.38"/><rect class="cls-1" x="1837.71" y="436.85" width="9.32" height="4.92"/><rect class="cls-1" x="1917.84" y="521.61" width="9.32" height="4.92"/><rect class="cls-1" x="1958.23" y="513.69" width="9.32" height="4.92"/><rect class="cls-1" x="2025.54" y="458.03" width="9.32" height="4.92"/><rect class="cls-1" x="2119.79" y="422.84" width="9.32" height="24.27"/><rect class="cls-1" x="2200.56" y="340.97" width="9.32" height="4.92"/><rect class="cls-1" x="2321.73" y="364.72" width="9.32" height="4.92"/><rect class="cls-1" x="2402.51" y="325.14" width="9.32" height="4.92"/><rect class="cls-1" x="2469.83" y="289.01" width="9.32" height="4.92"/><rect class="cls-1" x="1798.3" y="382.16" width="9.32" height="9.32"/><rect class="cls-1" x="1890.91" y="491.69" width="9.32" height="15.83"/><rect class="cls-1" x="1944.76" y="516.15" width="9.32" height="15.83"/><rect class="cls-1" x="2012.08" y="454.02" width="9.32" height="15.83"/><rect class="cls-1" x="2039.01" y="458.78" width="9.32" height="15.83"/><rect class="cls-1" x="2214.03" y="343.43" width="9.32" height="15.83"/><rect class="cls-1" x="2281.34" y="351.35" width="9.32" height="15.83"/><rect class="cls-1" x="2052.47" y="465.42" width="9.32" height="15.83"/><rect class="cls-1" x="2106.32" y="425.29" width="9.32" height="15.83"/><rect class="cls-1" x="2133.25" y="410.11" width="9.32" height="15.83"/><rect class="cls-1" x="2240.95" y="327.6" width="9.32" height="15.83"/><rect class="cls-1" x="2348.66" y="326.19" width="9.32" height="9.32"/><rect class="cls-1" x="2227.49" y="335.52" width="9.32" height="15.83"/><rect class="cls-1" x="2375.59" y="283.55" width="9.32" height="15.83"/><rect class="cls-1" x="2187.1" y="343.43" width="9.32" height="15.83"/><rect class="cls-1" x="2294.81" y="359.26" width="9.32" height="15.83"/><rect class="cls-1" x="2415.98" y="311.77" width="9.32" height="15.83"/><rect class="cls-1" x="2267.88" y="358.19" width="9.32" height="15.83"/><rect class="cls-1" x="2456.37" y="275.63" width="9.32" height="15.83"/><rect class="cls-1" x="2483.29" y="290.46" width="9.32" height="15.83"/><rect class="cls-1" x="1719.49" y="448.11" width="9.32" height="9.32"/><rect class="cls-1" x="2501.59" y="256.29" width="1" height="50.12"/><rect class="cls-1" x="2514.72" y="294.25" width="1" height="16.73"/><rect class="cls-1" x="2527.86" y="286.24" width="1" height="35"/><rect class="cls-1" x="2540.99" y="300.74" width="1" height="43.72"/><rect class="cls-1" x="2554.13" y="315.26" width="1" height="19.37"/><rect class="cls-1" x="2567.27" y="279.15" width="1" height="60.12"/><rect class="cls-1" x="2580.4" y="279.15" width="1" height="67.3"/><rect class="cls-1" x="2593.54" y="292.15" width="1" height="18.83"/><rect class="cls-1" x="2606.67" y="256.29" width="1" height="54.69"/><rect class="cls-1" x="2619.81" y="248.65" width="1" height="43.5"/><rect class="cls-1" x="2632.94" y="251.65" width="1" height="18.75"/><rect class="cls-1" x="2646.08" y="256.29" width="1" height="37.96"/><rect class="cls-1" x="2659.22" y="265.61" width="1" height="61.29"/><rect class="cls-1" x="2672.35" y="299.43" width="1" height="21.81"/><rect class="cls-1" x="2685.49" y="307.34" width="1" height="40.12"/><rect class="cls-1" x="2698.62" y="333.91" width="1" height="31.92"/><rect class="cls-1" x="2712.09" y="328.15" width="1" height="58.08"/><rect class="cls-1" x="2725.55" y="361.15" width="1" height="31.58"/><rect class="cls-1" x="2739.01" y="365.82" width="1" height="53.41"/><rect class="cls-1" x="2752.48" y="387.82" width="1" height="18.29"/><rect class="cls-1" x="2765.94" y="390.28" width="1" height="37.37"/><rect class="cls-1" x="2779.4" y="376.94" width="1" height="34.71"/><rect class="cls-1" x="2792.87" y="384.15" width="1" height="12.81"/><rect class="cls-1" x="2806.33" y="349.86" width="1" height="44.43"/><rect class="cls-1" x="2819.79" y="352.46" width="1" height="30.49"/><rect class="cls-1" x="2833.25" y="328.15" width="1" height="56"/><rect class="cls-1" x="2846.72" y="318.15" width="1" height="30.58"/><rect class="cls-1" x="2860.18" y="324.94" width="1" height="19.52"/><rect class="cls-1" x="2873.64" y="327.64" width="1" height="33.51"/><rect class="cls-1" x="2887.11" y="333.91" width="1" height="27.25"/><rect class="cls-1" x="2900.57" y="337.08" width="1" height="50.74"/><rect class="cls-1" x="2914.03" y="324.94" width="1" height="45.54"/><rect class="cls-1" x="2927.5" y="296.97" width="1" height="54.02"/><rect class="cls-1" x="2940.96" y="289.79" width="1" height="31.36"/><rect class="cls-1" x="2954.42" y="289.79" width="1" height="42.37"/><rect class="cls-1" x="2967.89" y="277.15" width="1" height="28.32"/><rect class="cls-1" x="2981.35" y="245.03" width="1" height="65.62"/><rect class="cls-1" x="2994.81" y="238.85" width="1" height="43.3"/><rect class="cls-1" x="3008.28" y="212.65" width="1" height="62.04"/><rect class="cls-1" x="3021.74" y="212.65" width="1" height="31.02"/><rect class="cls-1" x="3035.2" y="209.65" width="1" height="15.83"/><rect class="cls-1" x="3048.67" y="193.82" width="1" height="47.49"/><rect class="cls-1" x="3062.13" y="201.73" width="1" height="30.59"/><rect class="cls-1" x="3075.59" y="185.15" width="1" height="37.5"/><rect class="cls-1" x="3089.06" y="199.27" width="1" height="65.32"/><rect class="cls-1" x="3102.52" y="225.48" width="1" height="29.66"/><rect class="cls-1" x="3115.98" y="209.65" width="1" height="35.39"/><rect class="cls-1" x="3129.45" y="225.48" width="1" height="35.02"/><rect class="cls-1" x="3142.91" y="235.65" width="1" height="63.77"/><rect class="cls-1" x="3156.37" y="225.48" width="1" height="23.75"/><rect class="cls-1" x="3169.84" y="185.15" width="1" height="64.07"/><rect class="cls-1" x="3183.3" y="189.65" width="1" height="30.37"/><rect class="cls-1" x="3196.76" y="145.65" width="1" height="67"/><rect class="cls-1" x="3210.23" y="151.65" width="1" height="28.77"/><rect class="cls-1" x="3223.69" y="159.65" width="1" height="63"/><rect class="cls-1" x="3237.15" y="193.82" width="1" height="15.83"/><rect class="cls-1" x="3250.62" y="179.15" width="1" height="33.5"/><rect class="cls-1" x="3264.08" y="133.15" width="1" height="67.31"/><rect class="cls-1" x="3277.54" y="136.65" width="1" height="46"/><rect class="cls-1" x="3291.01" y="142.85" width="1" height="29.66"/><rect class="cls-1" x="3304.47" y="157.68" width="1" height="15.83"/><rect class="cls-1" x="3317.93" y="145.65" width="1" height="40.25"/><rect class="cls-1" x="2497.43" y="271.41" width="9.32" height="29.66"/><rect class="cls-1" x="2536.83" y="306.41" width="9.32" height="29.66"/><rect class="cls-1" x="2602.51" y="271.41" width="9.32" height="29.66"/><rect class="cls-1" x="2734.85" y="371.41" width="9.32" height="29.66"/><rect class="cls-1" x="2802.17" y="358.91" width="9.32" height="29.66"/><rect class="cls-1" x="2815.63" y="358.91" width="9.32" height="14.83"/><rect class="cls-1" x="2990.65" y="255.14" width="9.32" height="19.56"/><rect class="cls-1" x="3273.38" y="142.85" width="9.32" height="29.66"/><rect class="cls-1" x="2896.41" y="350.99" width="9.32" height="29.66"/><rect class="cls-1" x="2909.87" y="333.91" width="9.32" height="29.66"/><rect class="cls-1" x="2829.09" y="334.62" width="9.32" height="39.11"/><rect class="cls-1" x="3004.12" y="225.48" width="9.32" height="39.11"/><rect class="cls-1" x="3138.75" y="240.31" width="9.32" height="39.11"/><rect class="cls-1" x="2977.19" y="255.14" width="9.32" height="39.11"/><rect class="cls-1" x="3084.9" y="205.92" width="9.32" height="39.11"/><rect class="cls-1" x="3259.92" y="153.95" width="9.32" height="39.11"/><rect class="cls-1" x="3219.53" y="165.6" width="9.32" height="39.11"/><rect class="cls-1" x="3192.6" y="165.6" width="9.32" height="39.11"/><rect class="cls-1" x="3165.68" y="200.46" width="9.32" height="39.11"/><rect class="cls-1" x="2923.34" y="307.34" width="9.32" height="39.11"/><rect class="cls-1" x="2707.92" y="333.45" width="9.32" height="37.04"/><rect class="cls-1" x="2681.33" y="312.07" width="9.32" height="29.66"/><rect class="cls-1" x="2615.65" y="263.15" width="9.32" height="23.08"/><rect class="cls-1" x="2761.78" y="396.15" width="9.32" height="23.08"/><rect class="cls-1" x="2641.92" y="259.86" width="9.32" height="23.08"/><rect class="cls-1" x="2563.11" y="292.15" width="9.32" height="42.47"/><rect class="cls-1" x="2576.24" y="285.17" width="9.32" height="42.47"/><rect class="cls-1" x="2655.05" y="270.92" width="9.32" height="42.47"/><rect class="cls-1" x="2523.7" y="294.49" width="9.32" height="18.95"/><rect class="cls-1" x="2510.56" y="298.61" width="9.32" height="4.92"/><rect class="cls-1" x="2589.38" y="296.15" width="9.32" height="4.92"/><rect class="cls-1" x="2694.46" y="339.27" width="9.32" height="16.38"/><rect class="cls-1" x="2668.19" y="310.98" width="9.32" height="4.92"/><rect class="cls-1" x="2748.31" y="395.74" width="9.32" height="4.92"/><rect class="cls-1" x="2788.7" y="387.82" width="9.32" height="4.92"/><rect class="cls-1" x="2856.02" y="332.17" width="9.32" height="4.92"/><rect class="cls-1" x="2950.26" y="296.97" width="9.32" height="24.27"/><rect class="cls-1" x="3031.04" y="215.1" width="9.32" height="4.92"/><rect class="cls-1" x="3152.21" y="238.85" width="9.32" height="4.92"/><rect class="cls-1" x="3232.99" y="199.27" width="9.32" height="4.92"/><rect class="cls-1" x="3300.31" y="163.14" width="9.32" height="4.92"/><rect class="cls-1" x="2628.78" y="256.29" width="9.32" height="9.32"/><rect class="cls-1" x="2721.39" y="365.82" width="9.32" height="15.83"/><rect class="cls-1" x="2775.24" y="390.28" width="9.32" height="15.83"/><rect class="cls-1" x="2842.56" y="328.15" width="9.32" height="15.83"/><rect class="cls-1" x="2869.48" y="332.91" width="9.32" height="15.83"/><rect class="cls-1" x="3044.51" y="217.56" width="9.32" height="15.83"/><rect class="cls-1" x="3111.82" y="225.48" width="9.32" height="15.83"/><rect class="cls-1" x="2882.95" y="339.55" width="9.32" height="15.83"/><rect class="cls-1" x="2936.8" y="299.43" width="9.32" height="15.83"/><rect class="cls-1" x="2963.73" y="284.24" width="9.32" height="15.83"/><rect class="cls-1" x="3071.43" y="201.73" width="9.32" height="15.83"/><rect class="cls-1" x="3179.14" y="200.32" width="9.32" height="9.32"/><rect class="cls-1" x="3057.97" y="209.65" width="9.32" height="15.83"/><rect class="cls-1" x="3206.07" y="157.68" width="9.32" height="15.83"/><rect class="cls-1" x="3017.58" y="217.56" width="9.32" height="15.83"/><rect class="cls-1" x="3125.29" y="233.39" width="9.32" height="15.83"/><rect class="cls-1" x="3246.46" y="185.9" width="9.32" height="15.83"/><rect class="cls-1" x="3098.36" y="232.32" width="9.32" height="15.83"/><rect class="cls-1" x="3286.85" y="149.77" width="9.32" height="15.83"/><rect class="cls-1" x="3313.77" y="164.6" width="9.32" height="15.83"/><rect class="cls-1" x="2549.97" y="322.24" width="9.32" height="9.32"/><rect class="cls-1" x="840.91" y="479.93" width="1" height="50.12"/><rect class="cls-1" x="854.05" y="517.89" width="1" height="16.73"/><rect class="cls-1" x="867.19" y="509.88" width="1" height="35"/><rect class="cls-1" x="880.32" y="524.38" width="1" height="43.72"/><rect class="cls-1" x="893.46" y="538.9" width="1" height="19.37"/><rect class="cls-1" x="906.59" y="502.79" width="1" height="60.12"/><rect class="cls-1" x="919.73" y="502.79" width="1" height="67.3"/><rect class="cls-1" x="932.86" y="515.79" width="1" height="18.83"/><rect class="cls-1" x="946" y="479.93" width="1" height="54.69"/><rect class="cls-1" x="959.13" y="472.29" width="1" height="43.5"/><rect class="cls-1" x="972.27" y="475.29" width="1" height="18.75"/><rect class="cls-1" x="985.41" y="479.93" width="1" height="37.96"/><rect class="cls-1" x="998.54" y="489.25" width="1" height="61.29"/><rect class="cls-1" x="1011.68" y="523.07" width="1" height="21.81"/><rect class="cls-1" x="1024.81" y="530.98" width="1" height="40.12"/><rect class="cls-1" x="1037.95" y="557.55" width="1" height="31.92"/><rect class="cls-1" x="1051.41" y="551.79" width="1" height="58.09"/><rect class="cls-1" x="1064.88" y="584.79" width="1" height="31.59"/><rect class="cls-1" x="1078.34" y="589.46" width="1" height="53.42"/><rect class="cls-1" x="1091.8" y="611.46" width="1" height="18.29"/><rect class="cls-1" x="1105.26" y="613.92" width="1" height="37.37"/><rect class="cls-1" x="1118.73" y="600.59" width="1" height="34.71"/><rect class="cls-1" x="1132.19" y="607.79" width="1" height="12.81"/><rect class="cls-1" x="1145.65" y="573.51" width="1" height="44.43"/><rect class="cls-1" x="1159.12" y="576.1" width="1" height="30.49"/><rect class="cls-1" x="1172.58" y="551.79" width="1" height="56"/><rect class="cls-1" x="1186.04" y="541.79" width="1" height="30.59"/><rect class="cls-1" x="1199.51" y="548.58" width="1" height="19.52"/><rect class="cls-1" x="1212.97" y="551.28" width="1" height="33.51"/><rect class="cls-1" x="1226.43" y="557.55" width="1" height="27.25"/><rect class="cls-1" x="1239.9" y="560.72" width="1" height="50.74"/><rect class="cls-1" x="1253.36" y="548.58" width="1" height="45.54"/><rect class="cls-1" x="1266.82" y="520.61" width="1" height="54.02"/><rect class="cls-1" x="1280.29" y="513.43" width="1" height="31.36"/><rect class="cls-1" x="1293.75" y="513.43" width="1" height="42.37"/><rect class="cls-1" x="1307.21" y="500.79" width="1" height="28.32"/><rect class="cls-1" x="1320.68" y="468.68" width="1" height="65.62"/><rect class="cls-1" x="1334.14" y="462.49" width="1" height="43.3"/><rect class="cls-1" x="1347.6" y="436.29" width="1" height="62.04"/><rect class="cls-1" x="1361.07" y="436.29" width="1" height="31.02"/><rect class="cls-1" x="1374.53" y="433.29" width="1" height="15.83"/><rect class="cls-1" x="1387.99" y="417.46" width="1" height="47.49"/><rect class="cls-1" x="1401.46" y="425.37" width="1" height="30.59"/><rect class="cls-1" x="1414.92" y="408.79" width="1" height="37.5"/><rect class="cls-1" x="1428.38" y="422.92" width="1" height="65.32"/><rect class="cls-1" x="1441.85" y="449.12" width="1" height="29.66"/><rect class="cls-1" x="1455.31" y="433.29" width="1" height="35.39"/><rect class="cls-1" x="1468.77" y="449.12" width="1" height="35.02"/><rect class="cls-1" x="1482.24" y="459.29" width="1" height="63.77"/><rect class="cls-1" x="1495.7" y="449.12" width="1" height="23.75"/><rect class="cls-1" x="1509.16" y="408.79" width="1" height="64.07"/><rect class="cls-1" x="1522.63" y="413.29" width="1" height="30.37"/><rect class="cls-1" x="1536.09" y="369.29" width="1" height="67"/><rect class="cls-1" x="1549.55" y="375.29" width="1" height="28.77"/><rect class="cls-1" x="1563.02" y="383.29" width="1" height="63"/><rect class="cls-1" x="1576.48" y="417.46" width="1" height="15.83"/><rect class="cls-1" x="1589.94" y="402.79" width="1" height="33.5"/><rect class="cls-1" x="1603.41" y="356.79" width="1" height="67.31"/><rect class="cls-1" x="1616.87" y="360.29" width="1" height="46"/><rect class="cls-1" x="1630.33" y="366.49" width="1" height="29.66"/><rect class="cls-1" x="1643.8" y="381.32" width="1" height="15.83"/><rect class="cls-1" x="1657.26" y="369.29" width="1" height="40.25"/><rect class="cls-1" x="836.75" y="495.05" width="9.32" height="29.66"/><rect class="cls-1" x="876.16" y="530.05" width="9.32" height="29.66"/><rect class="cls-1" x="941.84" y="495.05" width="9.32" height="29.66"/><rect class="cls-1" x="1074.18" y="595.05" width="9.32" height="29.66"/><rect class="cls-1" x="1141.49" y="582.55" width="9.32" height="29.66"/><rect class="cls-1" x="1154.96" y="582.55" width="9.32" height="14.83"/><rect class="cls-1" x="1329.98" y="478.78" width="9.32" height="19.56"/><rect class="cls-1" x="1612.71" y="366.49" width="9.32" height="29.66"/><rect class="cls-1" x="1235.74" y="574.63" width="9.32" height="29.66"/><rect class="cls-1" x="1249.2" y="557.55" width="9.32" height="29.66"/><rect class="cls-1" x="1168.42" y="558.27" width="9.32" height="39.11"/><rect class="cls-1" x="1343.44" y="449.12" width="9.32" height="39.11"/><rect class="cls-1" x="1478.08" y="463.95" width="9.32" height="39.11"/><rect class="cls-1" x="1316.52" y="478.78" width="9.32" height="39.11"/><rect class="cls-1" x="1424.22" y="429.56" width="9.32" height="39.11"/><rect class="cls-1" x="1599.25" y="377.6" width="9.32" height="39.11"/><rect class="cls-1" x="1558.86" y="389.24" width="9.32" height="39.11"/><rect class="cls-1" x="1531.93" y="389.24" width="9.32" height="39.11"/><rect class="cls-1" x="1505" y="424.1" width="9.32" height="39.11"/><rect class="cls-1" x="1262.66" y="530.98" width="9.32" height="39.11"/><rect class="cls-1" x="1047.25" y="557.09" width="9.32" height="37.04"/><rect class="cls-1" x="1020.65" y="535.71" width="9.32" height="29.66"/><rect class="cls-1" x="954.97" y="486.79" width="9.32" height="23.08"/><rect class="cls-1" x="1101.1" y="619.79" width="9.32" height="23.08"/><rect class="cls-1" x="981.25" y="483.51" width="9.32" height="23.08"/><rect class="cls-1" x="902.43" y="515.79" width="9.32" height="42.47"/><rect class="cls-1" x="915.57" y="508.81" width="9.32" height="42.47"/><rect class="cls-1" x="994.38" y="494.56" width="9.32" height="42.47"/><rect class="cls-1" x="863.02" y="518.13" width="9.32" height="18.95"/><rect class="cls-1" x="849.89" y="522.25" width="9.32" height="4.92"/><rect class="cls-1" x="928.7" y="519.79" width="9.32" height="4.92"/><rect class="cls-1" x="1033.79" y="562.91" width="9.32" height="16.38"/><rect class="cls-1" x="1007.52" y="534.63" width="9.32" height="4.92"/><rect class="cls-1" x="1087.64" y="619.38" width="9.32" height="4.92"/><rect class="cls-1" x="1128.03" y="611.46" width="9.32" height="4.92"/><rect class="cls-1" x="1195.35" y="555.81" width="9.32" height="4.92"/><rect class="cls-1" x="1289.59" y="520.61" width="9.32" height="24.27"/><rect class="cls-1" x="1370.37" y="438.75" width="9.32" height="4.92"/><rect class="cls-1" x="1491.54" y="462.49" width="9.32" height="4.92"/><rect class="cls-1" x="1572.32" y="422.92" width="9.32" height="4.92"/><rect class="cls-1" x="1639.64" y="386.78" width="9.32" height="4.92"/><rect class="cls-1" x="968.11" y="479.93" width="9.32" height="9.32"/><rect class="cls-1" x="1060.71" y="589.46" width="9.32" height="15.83"/><rect class="cls-1" x="1114.57" y="613.92" width="9.32" height="15.83"/><rect class="cls-1" x="1181.88" y="551.79" width="9.32" height="15.83"/><rect class="cls-1" x="1208.81" y="556.55" width="9.32" height="15.83"/><rect class="cls-1" x="1383.83" y="441.2" width="9.32" height="15.83"/><rect class="cls-1" x="1451.15" y="449.12" width="9.32" height="15.83"/><rect class="cls-1" x="1222.27" y="563.19" width="9.32" height="15.83"/><rect class="cls-1" x="1276.13" y="523.07" width="9.32" height="15.83"/><rect class="cls-1" x="1303.05" y="507.88" width="9.32" height="15.83"/><rect class="cls-1" x="1410.76" y="425.37" width="9.32" height="15.83"/><rect class="cls-1" x="1518.47" y="423.97" width="9.32" height="9.32"/><rect class="cls-1" x="1397.3" y="433.29" width="9.32" height="15.83"/><rect class="cls-1" x="1545.39" y="381.32" width="9.32" height="15.83"/><rect class="cls-1" x="1356.91" y="441.2" width="9.32" height="15.83"/><rect class="cls-1" x="1464.61" y="457.03" width="9.32" height="15.83"/><rect class="cls-1" x="1585.78" y="409.54" width="9.32" height="15.83"/><rect class="cls-1" x="1437.69" y="455.96" width="9.32" height="15.83"/><rect class="cls-1" x="1626.17" y="373.41" width="9.32" height="15.83"/><rect class="cls-1" x="1653.1" y="388.24" width="9.32" height="15.83"/><rect class="cls-1" x="889.3" y="545.88" width="9.32" height="9.32"/></g></g></svg>